<svg preserveAspectRatio="none" width="100%" height="100%" overflow="visible" style="display: block;" viewBox="0 0 12 12" fill="none" xmlns="http://www.w3.org/2000/svg">
<g id="Container">
<path id="Icon" d="M5 9.33333H7V7H9.33333V5H7V2.66667H5V5H2.66667V7H5V9.33333V9.33333M1.33333 12C0.966667 12 0.652778 11.8694 0.391667 11.6083C0.130556 11.3472 0 11.0333 0 10.6667V1.33333C0 0.966667 0.130556 0.652778 0.391667 0.391667C0.652778 0.130556 0.966667 0 1.33333 0H10.6667C11.0333 0 11.3472 0.130556 11.6083 0.391667C11.8694 0.652778 12 0.966667 12 1.33333V10.6667C12 11.0333 11.8694 11.3472 11.6083 11.6083C11.3472 11.8694 11.0333 12 10.6667 12H1.33333V12M1.33333 10.6667H10.6667V10.6667V10.6667V1.33333V1.33333V1.33333H1.33333V1.33333V1.33333V10.6667V10.6667V10.6667V10.6667M1.33333 1.33333V1.33333V1.33333V1.33333V10.6667V10.6667V10.6667V10.6667V10.6667V10.6667V1.33333V1.33333V1.33333V1.33333" fill="#122056" fill-opacity="0.7"/>
</g>
</svg>
